<svg id="Calque_1" data-name="Calque 1" xmlns="http://www.w3.org/2000/svg" viewBox="0 0 283.46 141.73"><title>logovioweb</title><path d="M125,61.29l2.65,5.76,2.65-5.76h2.66l-5.33,11-5.28-11Z"/><path d="M134.7,57a1.44,1.44,0,0,1,.46-1.07,1.47,1.47,0,0,1,1.08-.45,1.52,1.52,0,0,1,1.1.45,1.46,1.46,0,0,1,.45,1.08,1.5,1.5,0,0,1-.45,1.1A1.55,1.55,0,0,1,134.7,57Zm2.73,4.27V71.54h-2.37V61.29Z"/><path d="M140.49,66.34a5.1,5.1,0,0,1,1.59-3.78A5.32,5.32,0,0,1,146,61a5.4,5.4,0,0,1,3.9,1.57,5.49,5.49,0,0,1,0,7.72,5.46,5.46,0,0,1-3.93,1.55,5.2,5.2,0,0,1-3.86-1.58A5.32,5.32,0,0,1,140.49,66.34Zm2.42,0a3.46,3.46,0,0,0,.82,2.44,3.2,3.2,0,0,0,4.44,0,3.82,3.82,0,0,0,0-4.78,3.14,3.14,0,0,0-4.42,0A3.28,3.28,0,0,0,142.91,66.38Z"/><path d="M156.84,53.76V71.54h-2.37V53.76Z"/><path d="M169.72,67h-7.35a3.13,3.13,0,0,0,.82,2,2.49,2.49,0,0,0,1.87.74,2.4,2.4,0,0,0,1.46-.42,6.05,6.05,0,0,0,1.3-1.56l2,1.12a7.85,7.85,0,0,1-1,1.35,4.82,4.82,0,0,1-1.11.93,4.32,4.32,0,0,1-1.27.53,6.35,6.35,0,0,1-1.49.17,4.8,4.8,0,0,1-3.68-1.48,5.5,5.5,0,0,1-1.39-3.93,5.66,5.66,0,0,1,1.35-3.94,4.63,4.63,0,0,1,3.6-1.49,4.58,4.58,0,0,1,3.58,1.45,5.65,5.65,0,0,1,1.3,4ZM167.29,65a2.27,2.27,0,0,0-2.39-1.9,2.37,2.37,0,0,0-.81.13,2.58,2.58,0,0,0-.69.38,2.36,2.36,0,0,0-.53.6,2.7,2.7,0,0,0-.34.79Z"/><path d="M175.49,63.5v8h-2.37v-8h-1V61.29h1V57.53h2.37v3.76h1.84V63.5Z"/><path d="M181.92,63.5v8h-2.37v-8h-1V61.29h1V57.53h2.37v3.76h1.84V63.5Z"/><path d="M195.44,67h-7.35a3.09,3.09,0,0,0,.83,2,2.46,2.46,0,0,0,1.86.74,2.4,2.4,0,0,0,1.46-.42,6.05,6.05,0,0,0,1.3-1.56l2,1.12a7.85,7.85,0,0,1-1,1.35,4.82,4.82,0,0,1-1.11.93,4.32,4.32,0,0,1-1.27.53,6.33,6.33,0,0,1-1.48.17A4.81,4.81,0,0,1,187,70.36a5.5,5.5,0,0,1-1.39-3.93A5.66,5.66,0,0,1,187,62.49a4.63,4.63,0,0,1,3.6-1.49,4.58,4.58,0,0,1,3.58,1.45,5.66,5.66,0,0,1,1.31,4ZM193,65a2.26,2.26,0,0,0-2.39-1.9,2.37,2.37,0,0,0-.81.13,2.58,2.58,0,0,0-.69.38,2.36,2.36,0,0,0-.53.6,2.7,2.7,0,0,0-.34.79Z"/><path d="M208.14,53.76V71.54h-2.37V53.76Z"/><path d="M221,67h-7.35a3.08,3.08,0,0,0,.82,2,2.74,2.74,0,0,0,3.33.32,5.86,5.86,0,0,0,1.29-1.56l2,1.12a7.35,7.35,0,0,1-1,1.35,5,5,0,0,1-1.1.93,4.38,4.38,0,0,1-1.28.53,6.26,6.26,0,0,1-1.48.17,4.82,4.82,0,0,1-3.69-1.48,5.55,5.55,0,0,1-1.39-3.93,5.66,5.66,0,0,1,1.35-3.94,4.66,4.66,0,0,1,3.6-1.49,4.57,4.57,0,0,1,3.58,1.45,5.66,5.66,0,0,1,1.31,4ZM218.59,65a2.27,2.27,0,0,0-2.39-1.9,2.37,2.37,0,0,0-.81.13,2.31,2.31,0,0,0-.69.38,2.39,2.39,0,0,0-.54.6,2.68,2.68,0,0,0-.33.79Z"/><path d="M241.26,71.3a12.2,12.2,0,0,1,0,1.28,8.07,8.07,0,0,1-.13,1,4.4,4.4,0,0,1-1,2,4.81,4.81,0,0,1-3.82,1.6A5.08,5.08,0,0,1,232.89,76a4.54,4.54,0,0,1-1.58-3.15h2.38a2.65,2.65,0,0,0,.45,1.17,2.55,2.55,0,0,0,2.15,1c1.74,0,2.6-1.06,2.6-3.19V70.4a4.42,4.42,0,0,1-3.25,1.44,4.36,4.36,0,0,1-3.43-1.52,5.59,5.59,0,0,1-1.35-3.84,5.92,5.92,0,0,1,1.25-3.81A4.37,4.37,0,0,1,235.67,61a4.1,4.1,0,0,1,3.22,1.45V61.29h2.37ZM239,66.44a3.45,3.45,0,0,0-.8-2.39,2.65,2.65,0,0,0-2.08-.92,2.53,2.53,0,0,0-2.12,1,3.65,3.65,0,0,0-.71,2.32,3.58,3.58,0,0,0,.71,2.29,2.53,2.53,0,0,0,2.12,1,2.6,2.6,0,0,0,2.15-1A3.48,3.48,0,0,0,239,66.44Z"/><path d="M252.35,61.29h2.38V71.54h-2.38V70.47a4.54,4.54,0,0,1-6.66-.17,5.72,5.72,0,0,1-1.38-3.92,5.55,5.55,0,0,1,1.38-3.84A4.46,4.46,0,0,1,249.14,61a4.32,4.32,0,0,1,3.21,1.48Zm-5.62,5.09a3.53,3.53,0,0,0,.79,2.4,2.57,2.57,0,0,0,2,.94,2.73,2.73,0,0,0,2.13-.9,3.52,3.52,0,0,0,.81-2.38,3.49,3.49,0,0,0-.81-2.38,2.68,2.68,0,0,0-2.11-.92,2.62,2.62,0,0,0-2,.93A3.39,3.39,0,0,0,246.73,66.38Z"/><path d="M260.63,53.76V71.54h-2.37V53.76Z"/><path d="M266.54,53.76V71.54h-2.37V53.76Z"/><path d="M136.2,90.93c-.86,1.35-3.18,2.94-5.47,4.35-.27.18-.53.33-.8.5.06.5.12.94.18,1.39a23.57,23.57,0,0,1,.26,2.35c0,1.23-1,2.2-2.76,2.67a7.48,7.48,0,0,1-2,.27,3,3,0,0,1-2.59-.91c-.2-.35-.29-.91.47-1.65a33.42,33.42,0,0,1,5.8-4.41c-.09-.88-.21-1.79-.24-2.62-.12-1.79,0-2.76.44-3.14a.75.75,0,0,1,.65-.21.31.31,0,0,1,.23.35.3.3,0,0,1-.35.24c-.06,0-.09,0-.12,0s-.38.7-.29,2.7c.06.71.15,1.53.23,2.3l.59-.36c2.24-1.38,4.53-3,5.32-4.23.09-.15.27-.12.42,0S136.28,90.78,136.2,90.93Zm-6.42,8.59a21.23,21.23,0,0,0-.26-2.27c0-.35-.09-.73-.15-1.11a31.94,31.94,0,0,0-5.47,4.17c-.26.27-.55.65-.38.94.32.56,2.15.86,3.94.36C128.17,101.43,129.78,100.84,129.78,99.52Z"/><path d="M140.67,80.84c3.32-.47,6.55-.82,8,.33a.29.29,0,0,1-.35.47c-1.41-1.09-5.17-.56-8.5-.09a2.22,2.22,0,0,1-.44.06c-.73,1.65-1.41,3.41-2,5.09-2,5.82-.85,9.52,3.68,5.44a14.3,14.3,0,0,0,1.44-1.59.29.29,0,1,1,.44.38,13.66,13.66,0,0,1-1.47,1.62c-5.91,5.23-6.65-.77-4.65-6,.59-1.56,1.15-3.23,1.86-4.79-1.09.12-2.62.5-3.65-.24a.26.26,0,0,1-.06-.41.27.27,0,0,1,.38-.06c.74.5,1.24.38,3.59.06.62-1.29,1.23-2.5,1.88-3.56.41-.62.91-.38.44.41S140.11,80,139.64,81Z"/><path d="M146.84,94a6.66,6.66,0,0,0,2.59-1.85,14.3,14.3,0,0,0,1.44-1.59.29.29,0,1,1,.44.38,13.66,13.66,0,0,1-1.47,1.62,7,7,0,0,1-2.82,2c-.35.06-.53,0-.71-.15-.44-.5-.14-1.59.41-3.2l.24-.77c-.27.35-.59.83-.85,1.24-1.24,1.82-2,2.91-2.65,2.91-.44,0-1.18-.18-1.29-1.38a5.94,5.94,0,0,1,.35-2.33l.41-.94a1.17,1.17,0,0,1,.56-.53.3.3,0,0,1,.35.24.32.32,0,0,1-.2.35,3.06,3.06,0,0,0-.65,1.38,4.28,4.28,0,0,0-.21,2.09.64.64,0,0,0,.68.53s.23,0,.85-.79c.41-.53.85-1.21,1.3-1.86l.94-1.32c.29-.38.56-.71.88-.59s.23.62.18.85-.21.68-.33,1.09a15.82,15.82,0,0,0-.53,1.71C146.72,93.25,146.52,94.05,146.84,94Z"/><path d="M154.66,92.52a22.81,22.81,0,0,1-.2-2.53,22.09,22.09,0,0,1-1.38,2c-1.24,1.62-1.8,1.82-2.12,1.82h-.06a.83.83,0,0,1-.94-.7,4.6,4.6,0,0,1,1-2.44c.38-.56,1.17-1.56,1.64-1.68a.84.84,0,0,1,.86.21,1.16,1.16,0,0,1,.26.82l.83-1.26a9.31,9.31,0,0,1,.14-1.06,34.11,34.11,0,0,1,1.3-4.86c.94-2.7,2.41-5.94,3.47-6.64a.59.59,0,0,1,.73,0c.41.29.41,1.06,0,2.44a53.15,53.15,0,0,1-4.44,9.26,11.42,11.42,0,0,1-.65,1.06l0,.65a12.83,12.83,0,0,0,.32,3.29c.94,3.41,4.29-1.44,5.26-2.32a.28.28,0,0,1,.41,0,.28.28,0,0,1,0,.41,12.68,12.68,0,0,1-1.47,1.62C157.75,94.81,155.28,95.87,154.66,92.52Zm-1.32-1.88a.35.35,0,0,1-.21-.38,1,1,0,0,0,0-.65.18.18,0,0,0-.15-.06.27.27,0,0,0-.15,0A5.25,5.25,0,0,0,151.43,91a3.88,3.88,0,0,0-.88,2c0,.09,0,.21.38.21.09,0,.53-.09,1.68-1.59Zm2-3.24a51.31,51.31,0,0,0,4.26-9c.44-1.41.3-1.73.27-1.79s-.38.18-1,1.24a24.3,24.3,0,0,0-1.59,3.29A34.73,34.73,0,0,0,155.37,87.4Z"/><path d="M161.75,94.72h-.26a1.37,1.37,0,0,1-1.18-.49c-.65-1,.24-2.83.8-4.06l.35-.77a.3.3,0,0,1,.35-.2.33.33,0,0,1,.21.38c-.06.18-.21.47-.36.82a17.17,17.17,0,0,0-.82,2c-.26.91-.18,1.33-.06,1.5a1,1,0,0,0,.91.27,6.3,6.3,0,0,0,3.68-2,14.3,14.3,0,0,0,1.44-1.59.29.29,0,1,1,.44.38,13.66,13.66,0,0,1-1.47,1.62A5.94,5.94,0,0,1,161.75,94.72Zm0-7.79a.84.84,0,1,1,1.68,0,.84.84,0,1,1-1.68,0Zm.59,0a.25.25,0,1,0,.5,0,.26.26,0,0,0-.26-.26A.25.25,0,0,0,162.31,86.93Z"/><path d="M170.13,92.05l-.23.41a2.75,2.75,0,0,1-2.18,1.41,1.41,1.41,0,0,1-1.26-1.14,1.49,1.49,0,0,1,.11-1.06,2,2,0,0,1,.71-.8,1.76,1.76,0,0,1-.12-.67,2.2,2.2,0,0,1,.68-1.33,2.36,2.36,0,0,1,1.59-.58c.82,0,1.29.61,1.29,1.61a5.21,5.21,0,0,1-.29,1.53,7.86,7.86,0,0,0,2.41-.73.67.67,0,0,0,.12-.15.28.28,0,0,1,.41,0,.29.29,0,0,1,0,.41.22.22,0,0,1-.09.09C173.31,91.4,170.81,92,170.13,92.05Zm-.67,0a4.78,4.78,0,0,1-.68-.06,2.12,2.12,0,0,1-1.21-.59,1.06,1.06,0,0,0-.55,1.18.85.85,0,0,0,.7.7,2,2,0,0,0,1.68-1.14Zm.67-2.15c0-.67-.23-1-.7-1a1.82,1.82,0,0,0-1.21.44,1.49,1.49,0,0,0-.47.92.88.88,0,0,0,.15.58v.06a1.53,1.53,0,0,0,1,.53,4.64,4.64,0,0,0,.91.06A4.06,4.06,0,0,0,170.13,89.9Z"/><path d="M189.21,93.58a2.4,2.4,0,0,1-2.44.94A.3.3,0,1,1,187,94c.65.27,1.42-.38,1.8-.79a8.2,8.2,0,0,0,1.67-2.77,3.65,3.65,0,0,0,.27-2.53,1,1,0,0,0-1-.56c-.41,0-1.38.39-2.94,3.09A39.7,39.7,0,0,0,184.53,95c-.12,1.21-.29,2.41-.47,3.5a36.22,36.22,0,0,1-1,4.41c-.53,1.79-1,2.15-1.26,2.24h-.15a.46.46,0,0,1-.32-.15c-.15-.15-.53-.62.61-4.47a59.73,59.73,0,0,1,2-5.68l.09-.85a26.22,26.22,0,0,0,.12-3.59c-.06-1.26-.29-1.47-.32-1.5a.29.29,0,0,1-.3-.29.31.31,0,0,1,.3-.29c.64,0,.79,1,.85,1.32a19.57,19.57,0,0,1,0,3.53.1.1,0,0,1,0-.06,26.84,26.84,0,0,1,2.44-4.41c.94-1.33,1.79-1.94,2.53-1.94a1.52,1.52,0,0,1,1.53.91C191.88,89.14,190.68,92.05,189.21,93.58Zm-5.53,3.62c-.24.61-.44,1.23-.65,1.82a37.41,37.41,0,0,0-1.09,3.76,6.11,6.11,0,0,0-.2,1.65,2.35,2.35,0,0,0,.47-.88A19.36,19.36,0,0,0,183,101C183.24,99.84,183.47,98.52,183.68,97.2Z"/><path d="M201.94,92.14a14.3,14.3,0,0,0,1.44-1.59.28.28,0,0,1,.41,0,.28.28,0,0,1,0,.41,12.68,12.68,0,0,1-1.47,1.62c-.76.79-3.11,3-4.38,1.68a3.17,3.17,0,0,1-.38-2.65,1.76,1.76,0,0,0,.06-.38A5,5,0,0,0,195.38,93a19.91,19.91,0,0,0-1.44,1.88.29.29,0,0,1-.23.15.31.31,0,0,1-.24-.12c-.17-.2-.38-.73-.09-2.7a47,47,0,0,1,1.06-4.77A57.76,57.76,0,0,1,198.24,77a10.93,10.93,0,0,1,1.32-2.09,1.88,1.88,0,0,1,1.41-.85.82.82,0,0,1,.77.5,4.11,4.11,0,0,1-.24,2.53A28.94,28.94,0,0,1,200,80.79a46.16,46.16,0,0,1-4.14,7,3.84,3.84,0,0,1-1.21,1.24c-.29,1.2-.5,2.26-.65,3.17a12.28,12.28,0,0,0-.14,1.74c.26-.38.64-.88,1.08-1.41,1.18-1.32,2.15-2,2.94-2a.53.53,0,0,1,.3.12c.15.2.12.47,0,1-.12.67-.27,1.64.2,2.14C199.29,94.72,201.29,92.81,201.94,92.14Zm-7.09-4a14.27,14.27,0,0,0,1.06-1.35c.74-1.12,1.62-2.56,2.44-4.06,1.92-3.56,3-6.5,2.92-7.65-.06-.41-.24-.41-.33-.41h0c-.23,0-.94.26-2.14,2.62A55.15,55.15,0,0,0,195,87.55Z"/><path d="M206.71,92.05l-.24.41a2.75,2.75,0,0,1-2.18,1.41A1.43,1.43,0,0,1,203,92.73a1.44,1.44,0,0,1,.12-1.06,1.94,1.94,0,0,1,.7-.8,1.75,1.75,0,0,1-.11-.67,2.13,2.13,0,0,1,.67-1.33,2.38,2.38,0,0,1,1.59-.58c.82,0,1.29.61,1.29,1.61a4.9,4.9,0,0,1-.29,1.53,7.76,7.76,0,0,0,2.41-.73.67.67,0,0,0,.12-.15.29.29,0,1,1,.44.38.22.22,0,0,1-.09.09C209.88,91.4,207.38,92,206.71,92.05Zm-.68,0a4.78,4.78,0,0,1-.68-.06,2.06,2.06,0,0,1-1.2-.59,1.07,1.07,0,0,0-.56,1.18c.12.41.41.7.7.7A2,2,0,0,0,206,92.14Zm.68-2.15c0-.67-.24-1-.71-1a1.82,1.82,0,0,0-1.21.44,1.49,1.49,0,0,0-.47.92.88.88,0,0,0,.15.58v.06a1.56,1.56,0,0,0,1,.53,4.64,4.64,0,0,0,.91.06A3.91,3.91,0,0,0,206.71,89.9Z"/><path d="M214.5,80.84c3.32-.47,6.56-.82,8,.33a.34.34,0,0,1,.06.41.33.33,0,0,1-.42.06c-1.41-1.09-5.17-.56-8.49-.09a2.32,2.32,0,0,1-.45.06c-.73,1.65-1.41,3.41-2,5.09-2,5.82-.85,9.52,3.68,5.44a14.3,14.3,0,0,0,1.44-1.59.29.29,0,1,1,.44.38,13.66,13.66,0,0,1-1.47,1.62c-5.91,5.23-6.64-.77-4.65-6,.59-1.56,1.15-3.23,1.86-4.79-1.09.12-2.62.5-3.65-.24a.26.26,0,0,1-.06-.41.27.27,0,0,1,.38-.06c.74.5,1.24.38,3.59.06.62-1.29,1.24-2.5,1.88-3.56.42-.62.92-.38.45.41S213.94,80,213.47,81Z"/><path d="M219.65,92.05l-.24.41a2.75,2.75,0,0,1-2.18,1.41A1.43,1.43,0,0,1,216,92.73a1.44,1.44,0,0,1,.12-1.06,1.94,1.94,0,0,1,.7-.8,1.75,1.75,0,0,1-.11-.67,2.13,2.13,0,0,1,.67-1.33,2.38,2.38,0,0,1,1.59-.58c.82,0,1.29.61,1.29,1.61a4.9,4.9,0,0,1-.29,1.53,7.76,7.76,0,0,0,2.41-.73.67.67,0,0,0,.12-.15.29.29,0,1,1,.44.38.22.22,0,0,1-.09.09C222.82,91.4,220.32,92,219.65,92.05Zm-.68,0a4.78,4.78,0,0,1-.68-.06,2.06,2.06,0,0,1-1.2-.59,1.07,1.07,0,0,0-.56,1.18c.12.41.41.7.7.7a2,2,0,0,0,1.68-1.14Zm.68-2.15c0-.67-.24-1-.71-1a1.82,1.82,0,0,0-1.21.44,1.49,1.49,0,0,0-.47.92.88.88,0,0,0,.15.58v.06a1.56,1.56,0,0,0,1,.53,4.64,4.64,0,0,0,.91.06A3.91,3.91,0,0,0,219.65,89.9Z"/><path d="M238.73,87.11c0,.15-.12.29-.26.32-.83.06-2.18,1.3-3.83,3.5a39.13,39.13,0,0,0-2.29,3.47.32.32,0,0,1-.27.15s-.05,0-.08,0a.29.29,0,0,1-.21-.32,11,11,0,0,0,.21-1.74,3.85,3.85,0,0,0-.33-2.29.51.51,0,0,0-.38-.18.31.31,0,0,1-.29-.29.29.29,0,0,1,.29-.3,1,1,0,0,1,.82.39,4,4,0,0,1,.47,2.7,3.24,3.24,0,0,1,0,.44c.41-.65,1-1.5,1.61-2.35a19.94,19.94,0,0,1,2.12-2.47,3.63,3.63,0,0,1,2.12-1.27A.27.27,0,0,1,238.73,87.11Z"/><path d="M238.58,94.72h-.26a1.37,1.37,0,0,1-1.18-.49c-.64-1,.24-2.83.8-4.06l.35-.77a.3.3,0,0,1,.35-.2.33.33,0,0,1,.21.38c-.06.18-.21.47-.36.82a17.17,17.17,0,0,0-.82,2c-.26.91-.18,1.33-.06,1.5a1,1,0,0,0,.91.27,6.3,6.3,0,0,0,3.68-2,14.3,14.3,0,0,0,1.44-1.59.29.29,0,1,1,.44.38,13.66,13.66,0,0,1-1.47,1.62A5.94,5.94,0,0,1,238.58,94.72Zm0-7.79a.84.84,0,1,1,.83.86A.86.86,0,0,1,238.55,86.93Zm.59,0a.25.25,0,1,0,.5,0,.26.26,0,0,0-.26-.26A.25.25,0,0,0,239.14,86.93Z"/><path d="M247.44,92.52a20.51,20.51,0,0,1-.21-2.53,22.09,22.09,0,0,1-1.38,2c-1.24,1.62-1.8,1.82-2.12,1.82h-.06a.83.83,0,0,1-.94-.7,4.6,4.6,0,0,1,1-2.44c.38-.56,1.18-1.56,1.65-1.68a.83.83,0,0,1,.85.21,1.16,1.16,0,0,1,.26.82l.83-1.26c0-.36.09-.71.14-1.06a34.11,34.11,0,0,1,1.3-4.86c.94-2.7,2.41-5.94,3.47-6.64a.59.59,0,0,1,.73,0c.42.29.42,1.06,0,2.44a53.15,53.15,0,0,1-4.44,9.26c-.2.39-.44.74-.64,1.06l-.06.65a12.83,12.83,0,0,0,.32,3.29c.94,3.41,4.29-1.44,5.26-2.32a.29.29,0,0,1,.45.38,13.26,13.26,0,0,1-1.48,1.62C250.52,94.81,248.05,95.87,247.44,92.52Zm-1.33-1.88a.34.34,0,0,1-.2-.38.9.9,0,0,0-.06-.65.18.18,0,0,0-.15-.06.27.27,0,0,0-.15,0A5.42,5.42,0,0,0,244.2,91a3.88,3.88,0,0,0-.88,2c0,.09,0,.21.38.21.09,0,.53-.09,1.68-1.59Zm2-3.24a51.31,51.31,0,0,0,4.26-9c.45-1.41.3-1.73.27-1.79s-.38.18-1,1.24a24.3,24.3,0,0,0-1.59,3.29A34.73,34.73,0,0,0,248.14,87.4Z"/><path d="M256.64,88.73c1.53,0,.85.85.38,1.47-.73,1-2.44,2.29-3.59,2.35h0c-.11.79.36,1.41,1.8,1.41a5,5,0,0,0,3.06-1.82,14.3,14.3,0,0,0,1.44-1.59.29.29,0,1,1,.44.38,13.66,13.66,0,0,1-1.47,1.62,5.82,5.82,0,0,1-3.44,2C250.49,94.55,253.29,89.2,256.64,88.73ZM253.58,92a3.13,3.13,0,0,0,1.09-.47,7.31,7.31,0,0,0,1.59-1.29,2,2,0,0,0,.56-.89.65.65,0,0,0-.18,0A4.76,4.76,0,0,0,253.58,92Z"/><path d="M263,92.05l-.23.41a2.76,2.76,0,0,1-2.18,1.41,1.43,1.43,0,0,1-1.27-1.14,1.55,1.55,0,0,1,.12-1.06,2,2,0,0,1,.71-.8,1.76,1.76,0,0,1-.12-.67,2.15,2.15,0,0,1,.68-1.33,2.35,2.35,0,0,1,1.58-.58c.83,0,1.3.61,1.3,1.61a4.93,4.93,0,0,1-.3,1.53,7.85,7.85,0,0,0,2.42-.73.79.79,0,0,0,.11-.15.29.29,0,0,1,.42,0,.28.28,0,0,1,0,.41.17.17,0,0,1-.08.09C266.2,91.4,263.7,92,263,92.05Zm-.68,0a4.63,4.63,0,0,1-.67-.06,2.12,2.12,0,0,1-1.21-.59,1.08,1.08,0,0,0-.56,1.18c.12.41.42.7.71.7a2,2,0,0,0,1.68-1.14ZM263,89.9c0-.67-.23-1-.71-1a1.79,1.79,0,0,0-1.2.44,1.44,1.44,0,0,0-.47.92.88.88,0,0,0,.15.58v.06a1.51,1.51,0,0,0,1,.53,4.59,4.59,0,0,0,.91.06A4.06,4.06,0,0,0,263,89.9Z"/><path d="M71.65,71.84c-4.33,5.25-8.06,11-12.49,16.16a37.46,37.46,0,0,1-4.86,4.75,7.49,7.49,0,0,1-4.77,1.85c-4.44,0-6.85-3.65-8.56-7.38-2.16-4.73-4.11-9.55-6.26-14.29a28.26,28.26,0,0,0-2.58-4.46A6.59,6.59,0,0,0,30.66,67a3.07,3.07,0,0,0-3.82-.13c-2,1.26-3,3.23-4.13,5.17-1,1.71-1.65,3.54-2.52,5.3-1.08,2.16-.89,2.57-.89,2.57,3.46,21.24,21.69,36.36,43.91,36.36a44.67,44.67,0,0,0,43-56.7C93.26,57.19,81.23,60.21,71.65,71.84Z"/><path d="M26.66,59.6c3.74-.79,6.76.65,9.26,3.32s3.94,5.81,5.39,9c1.66,3.66,3.27,7.35,4.9,11a14.59,14.59,0,0,0,1.87,3.25c1,1.2,1.59,1.25,2.71.19a47.22,47.22,0,0,0,3.88-4.7c4.22-5.14,7.95-10.68,12.44-15.6,5.3-5.81,11.51-10.21,19.21-12.27a52.89,52.89,0,0,1,5.88-1.08,67.5,67.5,0,0,1,11.34-.45A44.68,44.68,0,0,0,19,65.15a19.22,19.22,0,0,1,1.29-1.6A11.88,11.88,0,0,1,26.66,59.6Z"/></svg>