<svg id="Calque_1" data-name="Calque 1" xmlns="http://www.w3.org/2000/svg" viewBox="0 0 127.56 127.56"><defs><style>.cls-1{fill:#fff;}</style></defs><title>logosimple</title><rect x="-5.07" y="-3.84" width="136.18" height="140.32"/><path class="cls-1" d="M71.15,63c-4.33,5.25-8.06,11-12.49,16.15a36.82,36.82,0,0,1-4.86,4.75A7.51,7.51,0,0,1,49,85.74c-4.44,0-6.85-3.65-8.56-7.37-2.16-4.73-4.11-9.56-6.26-14.29a28.35,28.35,0,0,0-2.58-4.47,6.54,6.54,0,0,0-1.47-1.5A3.07,3.07,0,0,0,26.34,58c-2,1.25-3,3.23-4.13,5.17-1,1.7-1.65,3.54-2.52,5.29C18.61,70.6,18.8,71,18.8,71c3.46,21.24,21.69,36.35,43.91,36.35a44.67,44.67,0,0,0,43-56.7C92.76,48.34,80.73,51.35,71.15,63Z"/><path class="cls-1" d="M26.16,50.74c3.74-.78,6.76.65,9.26,3.32s3.94,5.81,5.39,9c1.66,3.67,3.27,7.36,4.9,11a14.15,14.15,0,0,0,1.87,3.24c1,1.2,1.59,1.25,2.71.2a47.34,47.34,0,0,0,3.88-4.71c4.22-5.14,7.95-10.67,12.44-15.6C71.9,51.44,78.12,47.05,85.82,45A52.89,52.89,0,0,1,91.7,43.9,67.5,67.5,0,0,1,103,43.45,44.68,44.68,0,0,0,18.49,56.29c.4-.54.82-1.08,1.29-1.6A11.88,11.88,0,0,1,26.16,50.74Z"/></svg>