<svg id="Calque_1" data-name="Calque 1" xmlns="http://www.w3.org/2000/svg" viewBox="0 0 127.56 127.56"><title>logosimple</title><path d="M73.12,64.76c-4.33,5.25-8.06,11-12.49,16.15a37.45,37.45,0,0,1-4.86,4.75A7.54,7.54,0,0,1,51,87.51c-4.44,0-6.85-3.65-8.56-7.37-2.16-4.73-4.12-9.56-6.27-14.29a27.59,27.59,0,0,0-2.58-4.47,6.34,6.34,0,0,0-1.47-1.5,3.05,3.05,0,0,0-3.81-.13c-2,1.25-3,3.23-4.13,5.17-1,1.7-1.66,3.54-2.53,5.29-1.07,2.16-.88,2.58-.88,2.58,3.45,21.24,21.69,36.35,43.9,36.35a44.7,44.7,0,0,0,43-56.7C94.72,50.11,82.7,53.12,73.12,64.76Z"/><path d="M28.12,52.51c3.75-.78,6.76.65,9.27,3.32s3.94,5.81,5.39,9c1.66,3.67,3.26,7.36,4.89,11a14.92,14.92,0,0,0,1.87,3.24c1,1.2,1.6,1.25,2.72.2a47.34,47.34,0,0,0,3.88-4.71c4.22-5.14,8-10.67,12.44-15.6,5.29-5.81,11.51-10.2,19.21-12.27a52.06,52.06,0,0,1,5.88-1.08A67.5,67.5,0,0,1,105,45.22,44.69,44.69,0,0,0,20.45,58.06c.41-.54.83-1.08,1.29-1.6A11.92,11.92,0,0,1,28.12,52.51Z"/></svg>